<svg xmlns="http://www.w3.org/2000/svg" viewBox="0 0 1024 1024" role="img" aria-labelledby="title desc">
  <title id="title">Temporary Gillie app icon</title>
  <desc id="desc">Temporary teal aquatic buddy icon placeholder for Gillie until final PNG app icons are exported.</desc>
  <defs>
    <linearGradient id="bg" x1="240" y1="20" x2="790" y2="990" gradientUnits="userSpaceOnUse">
      <stop offset="0" stop-color="#04313A"/>
      <stop offset="0.58" stop-color="#075E5A"/>
      <stop offset="1" stop-color="#22B8A6"/>
    </linearGradient>
    <radialGradient id="waterGlow" cx="50%" cy="38%" r="54%">
      <stop offset="0" stop-color="#60E8D3" stop-opacity="0.34"/>
      <stop offset="0.72" stop-color="#60E8D3" stop-opacity="0.08"/>
      <stop offset="1" stop-color="#04313A" stop-opacity="0"/>
    </radialGradient>
    <linearGradient id="body" x1="330" y1="210" x2="690" y2="805" gradientUnits="userSpaceOnUse">
      <stop offset="0" stop-color="#C7FFF1"/>
      <stop offset="0.52" stop-color="#72E5D3"/>
      <stop offset="1" stop-color="#168A86"/>
    </linearGradient>
    <linearGradient id="gill" x1="190" y1="330" x2="820" y2="595" gradientUnits="userSpaceOnUse">
      <stop offset="0" stop-color="#9BFBE7"/>
      <stop offset="1" stop-color="#2BC5B6"/>
    </linearGradient>
    <radialGradient id="belly" cx="50%" cy="48%" r="56%">
      <stop offset="0" stop-color="#FFFFFF" stop-opacity="0.38"/>
      <stop offset="1" stop-color="#FFFFFF" stop-opacity="0"/>
    </radialGradient>
    <filter id="softShadow" x="-20%" y="-20%" width="140%" height="150%">
      <feDropShadow dx="0" dy="34" stdDeviation="32" flood-color="#001F24" flood-opacity="0.32"/>
    </filter>
  </defs>
  <rect width="1024" height="1024" rx="224" fill="url(#bg)"/>
  <circle cx="512" cy="430" r="360" fill="url(#waterGlow)"/>
  <ellipse cx="512" cy="788" rx="330" ry="76" fill="#002B30" opacity="0.32"/>
  <g filter="url(#softShadow)">
    <ellipse cx="286" cy="368" rx="86" ry="42" fill="url(#gill)" transform="rotate(24 286 368)"/>
    <ellipse cx="250" cy="478" rx="98" ry="48" fill="url(#gill)" transform="rotate(7 250 478)"/>
    <ellipse cx="298" cy="586" rx="76" ry="40" fill="url(#gill)" transform="rotate(-22 298 586)"/>
    <ellipse cx="738" cy="368" rx="86" ry="42" fill="url(#gill)" transform="rotate(-24 738 368)"/>
    <ellipse cx="774" cy="478" rx="98" ry="48" fill="url(#gill)" transform="rotate(-7 774 478)"/>
    <ellipse cx="726" cy="586" rx="76" ry="40" fill="url(#gill)" transform="rotate(22 726 586)"/>
    <ellipse cx="512" cy="558" rx="190" ry="238" fill="url(#body)"/>
    <ellipse cx="512" cy="398" rx="260" ry="202" fill="url(#body)"/>
    <ellipse cx="512" cy="610" rx="145" ry="124" fill="url(#belly)"/>
    <ellipse cx="398" cy="445" rx="30" ry="37" fill="#05252B"/>
    <ellipse cx="626" cy="445" rx="30" ry="37" fill="#05252B"/>
    <circle cx="408" cy="432" r="8" fill="#FFFFFF" opacity="0.82"/>
    <circle cx="636" cy="432" r="8" fill="#FFFFFF" opacity="0.82"/>
    <path d="M462 518 C488 548 536 548 562 518" fill="none" stroke="#05252B" stroke-width="16" stroke-linecap="round" opacity="0.72"/>
  </g>
  <path d="M112 138 C230 88 794 88 912 138 C965 160 1004 238 1004 318 L1004 0 L20 0 L20 318 C20 238 59 160 112 138Z" fill="#FFFFFF" opacity="0.10"/>
</svg>
